<svg xmlns="http://www.w3.org/2000/svg" xmlns:xlink="http://www.w3.org/1999/xlink" contentStyleType="text/css" height="844px" preserveAspectRatio="none" style="width:1240px;height:844px;background:#FFFFFF;" version="1.1" viewBox="0 0 1240 844" width="1240px" zoomAndPan="magnify"><defs/><g><!--entity Students--><g id="elem_Students"><ellipse cx="99.1826" cy="14" fill="#F1F1F1" rx="8" ry="8" style="stroke:#181818;stroke-width:0.5;"/><path d="M99.1826,22 L99.1826,49 M86.1826,30 L112.1826,30 M99.1826,49 L86.1826,64 M99.1826,49 L112.1826,64 " fill="none" style="stroke:#181818;stroke-width:0.5;"/><text fill="#000000" font-family="sans-serif" font-size="14" lengthAdjust="spacing" textLength="62.4053" x="67.98" y="78.4951">Students</text></g><!--entity ResearchersSaxion--><g id="elem_ResearchersSaxion"><ellipse cx="549.1778" cy="167.3" fill="#F1F1F1" rx="8" ry="8" style="stroke:#181818;stroke-width:0.5;"/><path d="M549.1778,175.3 L549.1778,202.3 M536.1778,183.3 L562.1778,183.3 M549.1778,202.3 L536.1778,217.3 M549.1778,202.3 L562.1778,217.3 " fill="none" style="stroke:#181818;stroke-width:0.5;"/><text fill="#000000" font-family="sans-serif" font-size="14" lengthAdjust="spacing" textLength="133.8955" x="482.23" y="231.7951">ResearchersSaxion</text></g><!--entity TeachersSmeot--><g id="elem_TeachersSmeot"><ellipse cx="923.185" cy="167.3" fill="#F1F1F1" rx="8" ry="8" style="stroke:#181818;stroke-width:0.5;"/><path d="M923.185,175.3 L923.185,202.3 M910.185,183.3 L936.185,183.3 M923.185,202.3 L910.185,217.3 M923.185,202.3 L936.185,217.3 " fill="none" style="stroke:#181818;stroke-width:0.5;"/><text fill="#000000" font-family="sans-serif" font-size="14" lengthAdjust="spacing" textLength="109.1699" x="868.6" y="231.7951">TeachersSmeot</text></g><!--entity TechYourFuture--><g id="elem_TechYourFuture"><ellipse cx="549.1793" cy="328.09" fill="#F1F1F1" rx="12" ry="12" style="stroke:#181818;stroke-width:0.5;"/><line style="stroke:#181818;stroke-width:0.5;" x1="537.1793" x2="561.1793" y1="342.09" y2="342.09"/><text fill="#000000" font-family="sans-serif" font-size="14" lengthAdjust="spacing" textLength="111.1387" x="493.61" y="357.0851">TechYourFuture</text></g><!--entity MinorIndustrialAutomation--><g id="elem_MinorIndustrialAutomation"><ellipse cx="99.1807" cy="188.8" fill="#F1F1F1" rx="12" ry="12" style="stroke:#181818;stroke-width:0.5;"/><line style="stroke:#181818;stroke-width:0.5;" x1="87.1807" x2="111.1807" y1="202.8" y2="202.8"/><text fill="#000000" font-family="sans-serif" font-size="14" lengthAdjust="spacing" textLength="186.3613" x="6" y="217.7951">MinorIndustrialAutomation</text></g><g id="elem_WeldingStation"><ellipse cx="651.1796" cy="730.7299" fill="#F1F1F1" rx="75.2496" ry="17.4499" style="stroke:#181818;stroke-width:0.5;"/><text fill="#000000" font-family="sans-serif" font-size="14" lengthAdjust="spacing" textLength="106.6543" x="594.8524" y="734.4775">WeldingStation</text></g><!--entity WeldingRobot--><g id="elem_WeldingRobot"><rect fill="#F1F1F1" height="46.2969" rx="2.5" ry="2.5" style="stroke:#181818;stroke-width:0.5;" width="138.1162" x="340.12" y="513.69"/><rect fill="#F1F1F1" height="10" style="stroke:#181818;stroke-width:0.5;" width="15" x="458.2362" y="518.69"/><rect fill="#F1F1F1" height="2" style="stroke:#181818;stroke-width:0.5;" width="4" x="456.2362" y="520.69"/><rect fill="#F1F1F1" height="2" style="stroke:#181818;stroke-width:0.5;" width="4" x="456.2362" y="524.69"/><text fill="#000000" font-family="sans-serif" font-size="14" lengthAdjust="spacing" textLength="98.1162" x="355.12" y="546.6851">WeldingRobot</text></g><!--entity KuKaRobot--><g id="elem_KuKaRobot"><rect fill="#F1F1F1" height="46.2969" rx="2.5" ry="2.5" style="stroke:#181818;stroke-width:0.5;" width="117.0479" x="495.66" y="437.39"/><rect fill="#F1F1F1" height="10" style="stroke:#181818;stroke-width:0.5;" width="15" x="592.7079" y="442.39"/><rect fill="#F1F1F1" height="2" style="stroke:#181818;stroke-width:0.5;" width="4" x="590.7079" y="444.39"/><rect fill="#F1F1F1" height="2" style="stroke:#181818;stroke-width:0.5;" width="4" x="590.7079" y="448.39"/><text fill="#000000" font-family="sans-serif" font-size="14" lengthAdjust="spacing" textLength="77.0479" x="510.66" y="470.3851">KuKaRobot</text></g><!--entity DoosanRobot--><g id="elem_DoosanRobot"><rect fill="#F1F1F1" height="46.2969" rx="2.5" ry="2.5" style="stroke:#181818;stroke-width:0.5;" width="133.8916" x="927.23" y="513.69"/><rect fill="#F1F1F1" height="10" style="stroke:#181818;stroke-width:0.5;" width="15" x="1041.1216" y="518.69"/><rect fill="#F1F1F1" height="2" style="stroke:#181818;stroke-width:0.5;" width="4" x="1039.1216" y="520.69"/><rect fill="#F1F1F1" height="2" style="stroke:#181818;stroke-width:0.5;" width="4" x="1039.1216" y="524.69"/><text fill="#000000" font-family="sans-serif" font-size="14" lengthAdjust="spacing" textLength="93.8916" x="942.23" y="546.6851">DoosanRobot</text></g><!--entity AMR--><g id="elem_AMR"><rect fill="#F1F1F1" height="46.2969" rx="2.5" ry="2.5" style="stroke:#181818;stroke-width:0.5;" width="71.3838" x="615.49" y="589.99"/><rect fill="#F1F1F1" height="10" style="stroke:#181818;stroke-width:0.5;" width="15" x="666.8738" y="594.99"/><rect fill="#F1F1F1" height="2" style="stroke:#181818;stroke-width:0.5;" width="4" x="664.8738" y="596.99"/><rect fill="#F1F1F1" height="2" style="stroke:#181818;stroke-width:0.5;" width="4" x="664.8738" y="600.99"/><text fill="#000000" font-family="sans-serif" font-size="14" lengthAdjust="spacing" textLength="31.3838" x="630.49" y="622.9851">AMR</text></g><g id="elem_vision"><ellipse cx="859.1832" cy="613.1292" fill="#F1F1F1" rx="40.5132" ry="14.5792" style="stroke:#181818;stroke-width:0.5;"/><text fill="#000000" font-family="sans-serif" font-size="14" lengthAdjust="spacing" textLength="40.7969" x="836.1881" y="616.7774">vision</text></g><g id="elem_welding/"><ellipse cx="651.1775" cy="823.909" fill="#F1F1F1" rx="54.2475" ry="14.729" style="stroke:#181818;stroke-width:0.5;"/><text fill="#000000" font-family="sans-serif" font-size="14" lengthAdjust="spacing" textLength="59.2061" x="618.5745" y="827.6565">welding/</text></g><line style="stroke:#181818;stroke-width:0.5;" x1="701.1013" x2="684.8818" y1="818.7745" y2="834.994"/><!--link Students to MinorIndustrialAutomation--><g id="link_Students_MinorIndustrialAutomation"><path d="M99.18,82.05 C99.18,110.4 99.18,148.48 99.18,172.62 " fill="none" id="Students-MinorIndustrialAutomation" style="stroke:#181818;stroke-width:1.0;"/><text fill="#000000" font-family="sans-serif" font-size="13" lengthAdjust="spacing" textLength="128.7559" x="100.18" y="124.8669">Following the minor</text></g><!--link ResearchersSaxion to TechYourFuture--><g id="link_ResearchersSaxion_TechYourFuture"><path d="M546.83,235.22 C546.17,249.84 545.75,266.75 546.18,282.09 C546.45,291.79 547.01,302.48 547.57,311.71 " fill="none" id="ResearchersSaxion-TechYourFuture" style="stroke:#181818;stroke-width:1.0;"/><text fill="#000000" font-family="sans-serif" font-size="13" lengthAdjust="spacing" textLength="332.2427" x="547.18" y="278.1569">Designing a module for level 3 students in robotics</text></g><!--link TeachersSmeot to TechYourFuture--><g id="link_TeachersSmeot_TechYourFuture"><path d="M914.47,235.39 C908.65,252.18 899.21,270.74 884.18,282.09 C841.25,314.53 688.89,327.74 605.22,332.65 " fill="none" id="TeachersSmeot-TechYourFuture" style="stroke:#181818;stroke-width:1.0;"/><text fill="#000000" font-family="sans-serif" font-size="13" lengthAdjust="spacing" textLength="332.2427" x="900.18" y="278.1569">Designing a module for level 3 students in robotics</text></g><!--link MinorIndustrialAutomation to TechYourFuture--><g id="link_MinorIndustrialAutomation_TechYourFuture"><path d="M100.67,221.38 C103.24,240.75 110.07,267.38 128.18,282.09 C183,326.63 391.89,334.27 493.3,335.3 " fill="none" id="MinorIndustrialAutomation-TechYourFuture" style="stroke:#181818;stroke-width:1.0;"/><text fill="#000000" font-family="sans-serif" font-size="13" lengthAdjust="spacing" textLength="408.624" x="129.18" y="278.1569">Assisting in designing a module for level 3 students in robotics</text></g><!--link TechYourFuture to WeldingRobot--><g id="link_TechYourFuture_WeldingRobot"><path d="M493.25,352.41 C473.09,360.55 451.94,372.68 438.18,390.39 C410.14,426.48 407.04,482.45 407.78,513.38 " fill="none" id="TechYourFuture-WeldingRobot" style="stroke:#181818;stroke-width:1.0;"/><text fill="#000000" font-family="sans-serif" font-size="13" lengthAdjust="spacing" textLength="98.4204" x="439.18" y="403.4569">Welding a item</text></g><!--link TechYourFuture to DoosanRobot--><g id="link_TechYourFuture_DoosanRobot"><path d="M604.99,336.61 C706.16,336.68 914.13,342.78 965.18,390.39 C999.07,422 999.64,481.07 996.99,513.35 " fill="none" id="TechYourFuture-DoosanRobot" style="stroke:#181818;stroke-width:1.0;"/><text fill="#000000" font-family="sans-serif" font-size="13" lengthAdjust="spacing" textLength="156.8506" x="978.18" y="403.4569">Assist the welding robot</text></g><!--link TechYourFuture to KuKaRobot--><g id="link_TechYourFuture_KuKaRobot"><path d="M546.79,360.65 C545.74,374.3 544.99,391.83 546.18,407.39 C546.93,417.16 548.45,427.88 549.96,437.04 " fill="none" id="TechYourFuture-KuKaRobot" style="stroke:#181818;stroke-width:1.0;"/><text fill="#000000" font-family="sans-serif" font-size="13" lengthAdjust="spacing" textLength="413.9053" x="547.18" y="403.4569">Select the right components for the robot with the use of vision</text></g><!--link DoosanRobot to WeldingStation--><g id="link_DoosanRobot_WeldingStation"><path d="M989.73,560.4 C982.03,593.05 962.96,652.89 922.18,683.28 C891.32,706.28 791.82,718.73 722.39,724.8 " fill="none" id="DoosanRobot-WeldingStation" style="stroke:#181818;stroke-width:1.0;"/><text fill="#000000" font-family="sans-serif" font-size="13" lengthAdjust="spacing" textLength="156.8506" x="981.18" y="617.6969">Assist the welding robot</text></g><!--link WeldingRobot to WeldingStation--><g id="link_WeldingRobot_WeldingStation"><path d="M407.51,560.26 C407.1,582 409.85,614.77 427.18,636.28 C467.1,685.83 537.86,709.44 589.19,720.47 " fill="none" id="WeldingRobot-WeldingStation" style="stroke:#181818;stroke-width:1.0;"/><text fill="#000000" font-family="sans-serif" font-size="13" lengthAdjust="spacing" textLength="169.4951" x="428.18" y="617.6969">Welding a "Thor" hammer</text></g><!--link KuKaRobot to AMR--><g id="link_KuKaRobot_AMR"><path d="M546.94,484.02 C541.54,505.2 537.26,537.03 551.18,559.99 C558.54,572.12 589.64,587.24 615.23,598.07 " fill="none" id="KuKaRobot-AMR" style="stroke:#181818;stroke-width:1.0;"/><text fill="#000000" font-family="sans-serif" font-size="13" lengthAdjust="spacing" textLength="280.8457" x="552.18" y="541.4069">Brings selected components to on the AMR</text></g><!--link AMR to WeldingStation--><g id="link_AMR_WeldingStation"><path d="M651.18,636.7 C651.18,659.04 651.18,692.73 651.18,712.85 " fill="none" id="AMR-WeldingStation" style="stroke:#181818;stroke-width:1.0;"/><text fill="#000000" font-family="sans-serif" font-size="13" lengthAdjust="spacing" textLength="261.7012" x="652.18" y="679.3469">Brings components to the welding robot</text></g><!--link WeldingStation to welding/--><g id="link_WeldingStation_welding/"><path d="M651.18,748.46 C651.18,765.73 651.18,792.4 651.18,808.69 " fill="none" id="WeldingStation-welding/" style="stroke:#181818;stroke-width:1.0;"/></g><!--link KuKaRobot to vision--><g id="link_KuKaRobot_vision"><path d="M613.05,464.88 C686.39,470.28 805.87,483.54 837.18,513.69 C860.26,535.92 861.59,576.67 860.47,598.11 " fill="none" id="KuKaRobot-vision" style="stroke:#181818;stroke-width:1.0;"/></g><!--SRC=[hLExRiCm3Dpr5KJs84EtRYc204MG9GvGT5Hj9XOWYuKe9UtVb_8ZViJfK7JKcNV78scT1_AGXLYW2wnq_JmWe_PvYPup_MN8jVWHTGDMI44fOPZmBMXUlbFqsnYYnmxT6qV-rHMHWpVQhcEWIeUafI9ZhXdX3MrXt3aB3PvJzKbEwDs70ts8JG_luavFiGqHQpT5r_j3RtCndEJRvmeMrqP-jG2bkkImN3vk6PvXIzRILLWGIeGgLQgxCIMHyJI4kK4sPvUO6YegeaKuoImjNj324t3NW77WKmoJineD-jzKrUE0SnPhPiCXMOX8yHU_YQIO33Sh5krJD4t0QgP-iDvRH_K6sXqsPZF4swq8BKEBUKFpvbm6k1qAro7g3tNjrOIoVign09swqr73DleKxU7-rjWexnopdy3YM99VGAch2hrIVG2XoJrBxOkNIWQkus0nZ148H2xvfzDFvNDchS2OTz-qcX15glzdneqr0_e1]--></g></svg>